<svg width="261" height="156" viewBox="0 0 261 156" fill="none" xmlns="http://www.w3.org/2000/svg">
<path d="M0 8C0 3.58172 3.58172 0 8 0H261V156H0V8Z" fill="#002353"/>
<mask id="mask0_15_457" style="mask-type:alpha" maskUnits="userSpaceOnUse" x="0" y="0" width="261" height="156">
<rect width="261" height="156" fill="#013B42"/>
</mask>
<g mask="url(#mask0_15_457)">
<mask id="mask1_15_457" style="mask-type:alpha" maskUnits="userSpaceOnUse" x="0" y="-24" width="261" height="205">
<path d="M0 -24H261V181H0V-24Z" fill="#013B42"/>
</mask>
<g mask="url(#mask1_15_457)">
<path d="M375.088 428.418L371.005 413.994C341.446 309.561 210.7 275.114 133.522 351.425L122.43 362.392C49.8875 434.12 -73.0415 401.25 -100.105 302.889L-109.569 268.491C-129.15 197.323 -212.821 166.403 -273.976 207.735V207.735" stroke="url(#paint0_linear_15_457)" stroke-opacity="0.5"/>
<path d="M377.665 418.807L373.583 404.383C344.024 299.951 213.278 265.504 136.099 341.815L125.008 352.782C52.4652 424.509 -70.4638 391.639 -97.5271 293.279L-106.991 258.88C-126.573 187.713 -210.243 156.793 -271.398 198.125V198.125" stroke="url(#paint1_linear_15_457)" stroke-opacity="0.5"/>
<path d="M380.237 409.197L376.154 394.773C346.595 290.34 215.849 255.893 138.671 332.204L127.579 343.171C55.0364 414.899 -67.8925 382.029 -94.9558 283.668L-104.42 249.27C-124.001 178.102 -207.672 147.182 -268.827 188.514V188.514" stroke="url(#paint2_linear_15_457)" stroke-opacity="0.5"/>
<path d="M382.812 399.586L378.73 385.162C349.171 280.729 218.425 246.282 141.246 322.594L130.155 333.561C57.6121 405.288 -65.3169 372.418 -92.3801 274.058L-101.845 239.659C-121.426 168.491 -205.096 137.571 -266.251 178.904V178.904" stroke="url(#paint3_linear_15_457)" stroke-opacity="0.5"/>
<path d="M385.39 389.976L381.307 375.552C351.749 271.119 221.002 236.672 143.824 312.983L132.732 323.95C60.1898 395.678 -62.7392 362.808 -89.8024 264.447L-99.2669 230.049C-118.848 158.881 -202.518 127.961 -263.673 169.293V169.293" stroke="url(#paint4_linear_15_457)" stroke-opacity="0.5"/>
<path d="M387.961 380.366L383.879 365.941C354.32 261.509 223.574 227.062 146.395 303.373L135.304 314.34C62.7611 386.067 -60.1679 353.198 -87.2312 254.837L-96.6956 220.439C-116.277 149.271 -199.947 118.351 -261.102 159.683V159.683" stroke="url(#paint5_linear_15_457)" stroke-opacity="0.5"/>
<path d="M390.539 370.753L386.456 356.329C356.898 251.896 226.151 217.449 148.973 293.76L137.881 304.727C65.3387 376.454 -57.5903 343.585 -84.6535 245.224L-94.118 210.826C-113.699 139.658 -197.369 108.738 -258.525 150.07V150.07" stroke="url(#paint6_linear_15_457)" stroke-opacity="0.5"/>
<path d="M393.114 361.142L389.031 346.718C359.473 242.286 228.726 207.838 151.548 284.15L140.456 295.117C67.9139 366.844 -55.0151 333.974 -82.0783 235.614L-91.5428 201.215C-111.124 130.048 -194.794 99.1276 -255.949 140.46V140.46" stroke="url(#paint7_linear_15_457)" stroke-opacity="0.5"/>
<path d="M395.692 351.532L391.609 337.108C362.05 232.675 231.304 198.228 154.126 274.539L143.034 285.506C70.4915 357.234 -52.4375 324.364 -79.5007 226.003L-88.9651 191.605C-108.546 120.437 -192.217 89.5173 -253.372 130.849V130.849" stroke="url(#paint8_linear_15_457)" stroke-opacity="0.5"/>
<path d="M398.203 342.15L394.12 327.726C364.562 223.293 233.815 188.846 156.637 265.158L145.545 276.124C73.0028 347.852 -49.9262 314.982 -76.9895 216.622L-86.4539 182.223C-106.035 111.055 -189.705 80.1355 -250.86 121.468V121.468" stroke="url(#paint9_linear_15_457)" stroke-opacity="0.5"/>
<path d="M400.719 332.761L396.636 318.337C367.077 213.904 236.331 179.457 159.153 255.768L148.061 266.735C75.5184 338.462 -47.4106 305.593 -74.4738 207.232L-83.9383 172.834C-103.52 101.666 -187.19 70.7458 -248.345 112.078V112.078" stroke="url(#paint10_linear_15_457)" stroke-opacity="0.5"/>
<path d="M403.23 323.379L399.147 308.955C369.589 204.522 238.842 170.075 161.664 246.387L150.572 257.353C78.0296 329.081 -44.8994 296.211 -71.9626 197.851L-81.427 163.452C-101.008 92.2844 -184.679 61.3645 -245.834 102.697V102.697" stroke="url(#paint11_linear_15_457)" stroke-opacity="0.5"/>
<path d="M405.745 313.998L401.663 299.574C372.104 195.141 241.358 160.694 164.179 237.005L153.088 247.972C80.5452 319.7 -42.3838 286.83 -69.447 188.469L-78.9114 154.071C-98.4927 82.9031 -182.163 51.9831 -243.318 93.3153V93.3153" stroke="url(#paint12_linear_15_457)" stroke-opacity="0.5"/>
<path d="M408.263 304.614L404.18 290.19C374.622 185.757 243.875 151.31 166.697 227.621L155.605 238.588C83.0628 310.316 -39.8662 277.446 -66.9294 179.085L-76.3938 144.687C-95.9751 73.5193 -179.645 42.5993 -240.8 83.9315V83.9315" stroke="url(#paint13_linear_15_457)" stroke-opacity="0.5"/>
<path d="M410.772 295.228L406.69 280.804C377.131 176.372 246.385 141.924 169.206 218.236L158.115 229.203C85.5721 300.93 -37.3569 268.06 -64.4201 169.7L-73.8846 135.301C-93.4659 64.1335 -177.136 33.2136 -238.291 74.5457V74.5457" stroke="url(#paint14_linear_15_457)" stroke-opacity="0.5"/>
<path d="M413.29 285.845L409.207 271.421C379.649 166.988 248.902 132.541 171.724 208.852L160.632 219.819C88.0897 291.547 -34.8393 258.677 -61.9025 160.316L-71.367 125.918C-90.9483 54.7502 -174.618 23.8303 -235.774 65.1624V65.1624" stroke="url(#paint15_linear_15_457)" stroke-opacity="0.5"/>
<path d="M415.805 276.461L411.723 262.037C382.164 157.604 251.418 123.157 174.239 199.469L163.148 210.436C90.6053 282.163 -32.3237 249.293 -59.3869 150.933L-68.8514 116.534C-88.4327 45.3664 -172.103 14.4465 -233.258 55.7786V55.7786" stroke="url(#paint16_linear_15_457)" stroke-opacity="0.5"/>
<path d="M418.317 267.08L414.234 252.656C384.675 148.223 253.929 113.776 176.751 190.087L165.659 201.054C93.1165 272.782 -29.8125 239.912 -56.8757 141.551L-66.3401 107.153C-85.9214 35.9851 -169.592 5.06515 -230.747 46.3973V46.3973" stroke="url(#paint17_linear_15_457)" stroke-opacity="0.5"/>
<path d="M420.835 257.699L416.752 243.275C387.193 138.842 256.447 104.395 179.269 180.706L168.177 191.673C95.6346 263.4 -27.2944 230.531 -54.3576 132.17L-63.8221 97.7716C-83.4034 26.6037 -167.074 -4.3162 -228.229 37.016V37.016" stroke="url(#paint18_linear_15_457)" stroke-opacity="0.5"/>
<path d="M423.344 248.311L419.261 233.887C389.702 129.454 258.956 95.0069 181.778 171.318L170.686 182.285C98.1434 254.013 -24.7856 221.143 -51.8488 122.782L-61.3133 88.3839C-80.8946 17.2161 -164.565 -13.7039 -225.72 27.6283V27.6283" stroke="url(#paint19_linear_15_457)" stroke-opacity="0.5"/>
<path d="M425.859 238.927L421.777 224.503C392.218 120.07 261.472 85.6232 184.293 161.934L173.202 172.901C100.659 244.629 -22.27 211.759 -49.3332 113.398L-58.7976 79.0001C-78.3789 7.83226 -162.049 -23.0877 -223.204 18.2445V18.2445" stroke="url(#paint20_linear_15_457)" stroke-opacity="0.5"/>
<path d="M428.377 229.546L424.294 215.122C394.735 110.689 263.989 76.2418 186.811 152.553L175.719 163.52C103.177 235.247 -19.7524 202.378 -46.8156 104.017L-56.2801 69.6187C-75.8614 -1.54909 -159.532 -32.469 -220.687 8.86312V8.86312" stroke="url(#paint21_linear_15_457)" stroke-opacity="0.5"/>
<path d="M430.888 220.164L426.805 205.74C397.247 101.308 266.5 66.8605 189.322 143.172L178.23 154.139C105.688 225.866 -17.2412 192.996 -44.3044 94.6357L-53.7688 60.2374C-73.3501 -10.9304 -157.02 -41.8504 -218.175 -0.518225V-0.518225" stroke="url(#paint22_linear_15_457)" stroke-opacity="0.5"/>
</g>
</g>
<path d="M34.5 41V38.4H28.38V35.12H33.92V32.66H28.38V29.42H34.5V26.82H25.62V41H34.5ZM35.8806 41H38.8806C39.2206 40.46 40.5406 38.52 40.9006 37.98L42.9606 41H46.0806L42.5206 35.98L45.9606 31.16H42.9406L41.0006 34.08C40.6606 33.54 39.3806 31.7 39.0406 31.16H35.8806L39.3806 36.06L35.8806 41ZM51.7541 33.32C53.0741 33.32 53.6941 34.16 53.9341 34.98L56.3141 34.18C55.8941 32.52 54.3741 30.86 51.6941 30.86C48.8341 30.86 46.5941 33.04 46.5941 36.08C46.5941 39.1 48.8741 41.3 51.7741 41.3C54.3941 41.3 55.9341 39.62 56.3741 37.98L54.0341 37.2C53.8141 37.96 53.1341 38.86 51.7741 38.86C50.4141 38.86 49.2541 37.86 49.2541 36.08C49.2541 34.3 50.3941 33.32 51.7541 33.32ZM60.1725 34.96C60.2325 34.06 60.9925 33.02 62.3725 33.02C63.8925 33.02 64.5325 33.98 64.5725 34.96H60.1725ZM64.8325 37.52C64.5125 38.4 63.8325 39.02 62.5925 39.02C61.2725 39.02 60.1725 38.08 60.1125 36.78H67.1525C67.1525 36.74 67.1925 36.34 67.1925 35.96C67.1925 32.8 65.3725 30.86 62.3325 30.86C59.8125 30.86 57.4925 32.9 57.4925 36.04C57.4925 39.36 59.8725 41.3 62.5725 41.3C64.9925 41.3 66.5525 39.88 67.0525 38.18L64.8325 37.52ZM71.9472 41V26.52H69.2872V41H71.9472ZM77.455 41V26.52H74.795V41H77.455ZM82.2428 34.96C82.3028 34.06 83.0628 33.02 84.4428 33.02C85.9628 33.02 86.6028 33.98 86.6428 34.96H82.2428ZM86.9028 37.52C86.5828 38.4 85.9028 39.02 84.6628 39.02C83.3428 39.02 82.2428 38.08 82.1828 36.78H89.2228C89.2228 36.74 89.2628 36.34 89.2628 35.96C89.2628 32.8 87.4428 30.86 84.4028 30.86C81.8828 30.86 79.5628 32.9 79.5628 36.04C79.5628 39.36 81.9428 41.3 84.6428 41.3C87.0628 41.3 88.6228 39.88 89.1228 38.18L86.9028 37.52ZM94.0175 35.34C94.0175 34.2 94.6975 33.3 95.8575 33.3C97.1375 33.3 97.6775 34.16 97.6775 35.26V41H100.338V34.8C100.338 32.64 99.2175 30.9 96.7775 30.9C95.7175 30.9 94.5375 31.36 93.9375 32.38V31.16H91.3575V41H94.0175V35.34ZM106.317 28.22H103.917V29.6C103.917 30.48 103.437 31.16 102.397 31.16H101.897V33.52H103.677V38.1C103.677 40 104.877 41.14 106.797 41.14C107.577 41.14 108.057 41 108.297 40.9V38.7C108.157 38.74 107.797 38.78 107.477 38.78C106.717 38.78 106.317 38.5 106.317 37.64V33.52H108.297V31.16H106.317V28.22Z" fill="white"/>
<g clip-path="url(#clip0_15_457)">
<path d="M174.821 31.0874L183.205 31.0874L183.205 32.6217L179.904 32.6217L179.904 41.2707L178.094 41.2707L178.094 32.6217L174.807 32.6217L174.821 31.0874ZM182.846 33.898L184.393 33.898L184.393 35.3237L184.42 35.3237C184.476 35.12 184.572 34.9299 184.711 34.7398C184.849 34.5497 185.014 34.3732 185.222 34.2239C185.415 34.0609 185.636 33.9387 185.885 33.8437C186.119 33.7486 186.368 33.6943 186.617 33.6943C186.81 33.6943 186.948 33.7079 187.017 33.7079C187.086 33.7215 187.169 33.7351 187.238 33.7351L187.238 35.2965C187.128 35.2693 187.003 35.2558 186.879 35.2422C186.755 35.2286 186.644 35.215 186.52 35.215C186.244 35.215 185.981 35.2693 185.733 35.378C185.484 35.4866 185.277 35.6495 185.083 35.8532C184.904 36.0704 184.752 36.3284 184.641 36.6407C184.531 36.953 184.476 37.3196 184.476 37.7269L184.476 41.23L182.818 41.23L182.846 33.898ZM194.835 41.2707L193.205 41.2707L193.205 40.2388L193.177 40.2388C192.97 40.619 192.666 40.9041 192.266 41.1349C191.865 41.3657 191.451 41.4744 191.037 41.4744C190.056 41.4744 189.338 41.2435 188.896 40.7547C188.454 40.2795 188.233 39.5463 188.233 38.5823L188.233 33.898L189.89 33.898L189.89 38.4194C189.89 39.0711 190.014 39.5327 190.277 39.7907C190.526 40.0623 190.885 40.1981 191.34 40.1981C191.686 40.1981 191.976 40.1437 192.211 40.0351C192.445 39.9265 192.639 39.7907 192.777 39.6142C192.929 39.4377 193.026 39.2205 193.095 38.9761C193.164 38.7317 193.191 38.4601 193.191 38.175L193.191 33.898L194.849 33.898L194.849 41.2707L194.835 41.2707ZM197.653 38.9082C197.708 39.3834 197.887 39.7093 198.205 39.9129C198.523 40.103 198.91 40.1981 199.352 40.1981C199.504 40.1981 199.683 40.1845 199.876 40.1573C200.07 40.1302 200.263 40.0894 200.429 40.0215C200.609 39.9537 200.747 39.8586 200.857 39.7228C200.968 39.5871 201.023 39.4241 201.009 39.2205C200.995 39.0168 200.926 38.8403 200.774 38.7045C200.622 38.5687 200.443 38.4737 200.222 38.3786C200.001 38.2972 199.738 38.2293 199.448 38.175C199.158 38.1207 198.868 38.0528 198.564 37.9849C198.26 37.917 197.957 37.8355 197.666 37.7405C197.376 37.6454 197.128 37.5232 196.893 37.3467C196.672 37.1838 196.479 36.9801 196.354 36.7222C196.216 36.4642 196.147 36.1655 196.147 35.7853C196.147 35.378 196.244 35.0521 196.451 34.7805C196.644 34.509 196.907 34.2917 197.211 34.1288C197.515 33.9659 197.86 33.8437 198.233 33.7758C198.606 33.7079 198.965 33.6807 199.296 33.6807C199.683 33.6807 200.056 33.7215 200.401 33.8029C200.747 33.8844 201.078 34.0066 201.354 34.1967C201.644 34.3732 201.879 34.6176 202.059 34.9027C202.252 35.1879 202.363 35.5409 202.418 35.9482L200.691 35.9482C200.609 35.5545 200.429 35.2965 200.153 35.1607C199.863 35.0249 199.545 34.9571 199.172 34.9571C199.062 34.9571 198.91 34.9706 198.758 34.9842C198.592 35.0114 198.454 35.0385 198.302 35.0928C198.164 35.1471 198.039 35.2286 197.943 35.3236C197.846 35.4187 197.791 35.5545 197.791 35.7174C197.791 35.9211 197.86 36.0704 197.998 36.1926C198.136 36.3148 198.316 36.4099 198.55 36.5049C198.771 36.5864 199.034 36.6543 199.324 36.7086C199.614 36.7629 199.918 36.8308 200.222 36.8987C200.526 36.9666 200.816 37.048 201.106 37.1431C201.396 37.2381 201.658 37.3603 201.879 37.5368C202.1 37.6998 202.294 37.9034 202.432 38.1478C202.57 38.3922 202.639 38.7045 202.639 39.0575C202.639 39.492 202.542 39.8586 202.335 40.1709C202.128 40.4696 201.865 40.7276 201.548 40.9177C201.23 41.1078 200.857 41.2435 200.47 41.3386C200.07 41.4201 199.683 41.4744 199.296 41.4744C198.827 41.4744 198.385 41.4201 197.984 41.3114C197.584 41.2028 197.224 41.0399 196.934 40.8362C196.644 40.619 196.41 40.361 196.244 40.0351C196.078 39.7228 195.981 39.3427 195.968 38.8946L197.639 38.8946L197.639 38.9082L197.653 38.9082ZM203.109 33.898L204.365 33.898L204.365 31.6712L206.023 31.6712L206.023 33.8844L207.515 33.8844L207.515 35.0928L206.023 35.0928L206.023 39.0304C206.023 39.2069 206.037 39.3427 206.051 39.4784C206.064 39.6006 206.106 39.7093 206.147 39.7907C206.202 39.8722 206.285 39.9401 206.382 39.9808C206.493 40.0215 206.631 40.0487 206.824 40.0487C206.935 40.0487 207.059 40.0487 207.169 40.0351C207.28 40.0215 207.404 40.008 207.515 39.9808L207.515 41.2435C207.335 41.2707 207.156 41.2843 206.976 41.2979C206.796 41.325 206.631 41.325 206.437 41.325C205.995 41.325 205.65 41.2843 205.388 41.2028C205.125 41.1213 204.918 40.9991 204.766 40.8498C204.614 40.6869 204.517 40.4968 204.462 40.2659C204.407 40.0351 204.379 39.75 204.365 39.4513L204.365 35.1064L203.109 35.1064L203.109 33.8708L203.109 33.898ZM208.675 33.898L210.236 33.898L210.236 34.9027L210.263 34.9027C210.498 34.4682 210.816 34.1695 211.23 33.9795C211.645 33.7894 212.087 33.6943 212.584 33.6943C213.178 33.6943 213.689 33.7894 214.131 34.0066C214.573 34.2103 214.932 34.4818 215.222 34.8484C215.512 35.2014 215.733 35.6224 215.871 36.0976C216.009 36.5728 216.092 37.0888 216.092 37.6183C216.092 38.1207 216.023 38.5959 215.899 39.0575C215.761 39.5192 215.567 39.9401 215.305 40.2931C215.042 40.6461 214.711 40.9313 214.296 41.1485C213.882 41.3657 213.413 41.4744 212.86 41.4744C212.625 41.4744 212.377 41.4472 212.142 41.4065C211.907 41.3657 211.672 41.2979 211.451 41.2028C211.23 41.1078 211.023 40.9856 210.843 40.8362C210.65 40.6869 210.498 40.5103 210.374 40.3203L210.346 40.3203L210.346 43.9998L208.689 43.9998L208.689 33.898L208.675 33.898ZM214.462 37.5911C214.462 37.2653 214.421 36.9394 214.324 36.6271C214.241 36.3148 214.103 36.0433 213.924 35.7989C213.744 35.5545 213.523 35.3644 213.274 35.215C213.012 35.0657 212.708 34.9978 212.377 34.9978C211.686 34.9978 211.161 35.2286 210.802 35.7038C210.457 36.179 210.277 36.8172 210.277 37.6047C210.277 37.9849 210.319 38.3243 210.415 38.6366C210.512 38.9489 210.636 39.2205 210.83 39.4513C211.009 39.6821 211.23 39.8586 211.493 39.9944C211.755 40.1302 212.045 40.1981 212.39 40.1981C212.777 40.1981 213.081 40.1166 213.343 39.9672C213.606 39.8179 213.813 39.6142 213.993 39.3834C214.158 39.139 214.283 38.8674 214.352 38.5551C214.421 38.2293 214.462 37.917 214.462 37.5911ZM217.377 31.0874L219.034 31.0874L219.034 32.6217L217.377 32.6217L217.377 31.0874ZM217.377 33.898L219.034 33.898L219.034 41.2707L217.377 41.2707L217.377 33.898ZM220.512 31.0874L222.169 31.0874L222.169 41.2707L220.512 41.2707L220.512 31.0874ZM227.225 41.4744C226.631 41.4744 226.092 41.3793 225.623 41.1756C225.153 40.972 224.766 40.714 224.435 40.3746C224.117 40.0351 223.868 39.6142 223.703 39.139C223.537 38.6638 223.44 38.1342 223.44 37.5775C223.44 37.0209 223.523 36.5049 223.703 36.0297C223.868 35.5545 224.117 35.1471 224.435 34.7941C224.752 34.4547 225.153 34.1831 225.623 33.993C226.092 33.8029 226.631 33.6943 227.225 33.6943C227.819 33.6943 228.357 33.7894 228.827 33.993C229.297 34.1831 229.683 34.4547 230.015 34.7941C230.333 35.1336 230.581 35.5545 230.747 36.0297C230.913 36.5049 231.009 37.0209 231.009 37.5775C231.009 38.1478 230.926 38.6638 230.747 39.139C230.567 39.6142 230.333 40.0215 230.015 40.3746C229.697 40.714 229.297 40.9856 228.827 41.1756C228.357 41.3657 227.833 41.4744 227.225 41.4744ZM227.225 40.1845C227.584 40.1845 227.915 40.103 228.178 39.9537C228.454 39.8043 228.661 39.6006 228.841 39.3562C229.02 39.1118 229.145 38.8267 229.228 38.528C229.31 38.2157 229.352 37.9034 229.352 37.5775C229.352 37.2653 229.31 36.953 229.228 36.6407C229.145 36.3284 229.02 36.0568 228.841 35.8124C228.661 35.568 228.44 35.378 228.178 35.2286C227.902 35.0792 227.584 34.9978 227.225 34.9978C226.866 34.9978 226.534 35.0792 226.272 35.2286C225.996 35.378 225.788 35.5816 225.609 35.8124C225.429 36.0568 225.305 36.3284 225.222 36.6407C225.139 36.953 225.098 37.2653 225.098 37.5775C225.098 37.9034 225.139 38.2157 225.222 38.528C225.305 38.8403 225.429 39.1118 225.609 39.3562C225.788 39.6006 226.009 39.8043 226.272 39.9537C226.548 40.1166 226.866 40.1845 227.225 40.1845ZM231.507 33.898L232.764 33.898L232.764 31.6712L234.421 31.6712L234.421 33.8844L235.913 33.8844L235.913 35.0928L234.421 35.0928L234.421 39.0304C234.421 39.2069 234.435 39.3427 234.449 39.4784C234.462 39.6006 234.504 39.7093 234.545 39.7907C234.601 39.8722 234.683 39.9401 234.78 39.9808C234.891 40.0215 235.029 40.0487 235.222 40.0487C235.333 40.0487 235.457 40.0487 235.567 40.0351C235.678 40.0215 235.802 40.008 235.913 39.9808L235.913 41.2435C235.733 41.2707 235.554 41.2843 235.374 41.2978C235.194 41.325 235.029 41.325 234.835 41.325C234.393 41.325 234.048 41.2843 233.786 41.2028C233.523 41.1213 233.316 40.9991 233.164 40.8498C233.012 40.6868 232.915 40.4968 232.86 40.2659C232.805 40.0351 232.777 39.75 232.764 39.4513L232.764 35.1064L231.507 35.1064L231.507 33.8708L231.507 33.898Z" fill="white"/>
<path d="M172.887 31.0876L165.304 31.0876L162.97 24L160.622 31.0876L153.039 31.074L159.171 35.4596L156.823 42.5472L162.956 38.1616L169.088 42.5472L166.754 35.4596L172.887 31.0876Z" fill="#00B67A"/>
<path d="M167.279 37.0616L166.754 35.4595L162.97 38.1614L167.279 37.0616Z" fill="#005128"/>
</g>
<path d="M26.632 119H25.26V109.074H31.294V110.348H26.632V113.54H30.86V114.828H26.632V119ZM36.2135 112.196V113.596C36.0175 113.568 35.8261 113.554 35.6395 113.554C34.4075 113.554 33.7915 114.245 33.7915 115.626V119H32.4755V112.266H33.7635V113.442C34.1741 112.583 34.8461 112.154 35.7795 112.154C35.9288 112.154 36.0735 112.168 36.2135 112.196ZM38.9337 117.404C39.3444 117.824 39.8437 118.034 40.4317 118.034C41.0197 118.034 41.5144 117.824 41.9157 117.404C42.3264 116.975 42.5317 116.382 42.5317 115.626C42.5317 114.879 42.3264 114.296 41.9157 113.876C41.5144 113.447 41.0197 113.232 40.4317 113.232C39.8437 113.232 39.3444 113.447 38.9337 113.876C38.5324 114.296 38.3317 114.879 38.3317 115.626C38.3317 116.382 38.5324 116.975 38.9337 117.404ZM37.9537 113.078C38.6071 112.397 39.4331 112.056 40.4317 112.056C41.4304 112.056 42.2517 112.397 42.8957 113.078C43.5491 113.75 43.8757 114.599 43.8757 115.626C43.8757 116.662 43.5537 117.521 42.9097 118.202C42.2657 118.874 41.4397 119.21 40.4317 119.21C39.4237 119.21 38.5977 118.874 37.9537 118.202C37.3097 117.521 36.9877 116.662 36.9877 115.626C36.9877 114.599 37.3097 113.75 37.9537 113.078ZM46.8615 119H45.5595V112.266H46.8195V113.162C47.0248 112.807 47.3141 112.537 47.6875 112.35C48.0608 112.163 48.4528 112.07 48.8635 112.07C49.3021 112.07 49.7035 112.177 50.0675 112.392C50.4315 112.607 50.7021 112.924 50.8795 113.344C51.3461 112.495 52.0975 112.07 53.1335 112.07C53.7775 112.07 54.3235 112.289 54.7715 112.728C55.2288 113.167 55.4575 113.801 55.4575 114.632V119H54.1555V114.772C54.1555 114.305 54.0341 113.932 53.7915 113.652C53.5581 113.372 53.2035 113.232 52.7275 113.232C52.2701 113.232 51.8968 113.395 51.6075 113.722C51.3181 114.039 51.1735 114.441 51.1735 114.926V119H49.8575V114.772C49.8575 114.305 49.7361 113.932 49.4935 113.652C49.2601 113.372 48.9055 113.232 48.4295 113.232C47.9628 113.232 47.5848 113.391 47.2955 113.708C47.0061 114.025 46.8615 114.436 46.8615 114.94V119ZM63.0934 114.786L62.4214 113.652L65.0954 111.188H60.7554V109.928H66.9154V111.16L64.3254 113.554C65.0627 113.554 65.7114 113.797 66.2714 114.282C66.8407 114.767 67.1254 115.444 67.1254 116.312C67.1254 117.115 66.8314 117.801 66.2434 118.37C65.6554 118.939 64.8527 119.224 63.8354 119.224C62.8367 119.224 62.034 118.949 61.4274 118.398C60.83 117.838 60.508 117.161 60.4614 116.368L61.8054 116.06C61.8334 116.648 62.034 117.124 62.4074 117.488C62.79 117.843 63.2614 118.02 63.8214 118.02C64.4187 118.02 64.8854 117.861 65.2214 117.544C65.5667 117.217 65.7394 116.816 65.7394 116.34C65.7394 115.789 65.5574 115.369 65.1934 115.08C64.8294 114.791 64.3954 114.646 63.8914 114.646C63.6207 114.646 63.3547 114.693 63.0934 114.786ZM68.5249 118.104C68.5249 117.852 68.6229 117.633 68.8189 117.446C69.0149 117.259 69.2576 117.166 69.5469 117.166C69.8643 117.166 70.1303 117.283 70.3449 117.516C70.5689 117.749 70.6809 118.076 70.6809 118.496C70.6809 119.336 70.4663 119.985 70.0369 120.442C69.6076 120.899 69.1316 121.161 68.6089 121.226V120.498C68.9449 120.423 69.2203 120.237 69.4349 119.938C69.6496 119.649 69.7616 119.331 69.7709 118.986C69.7056 119.033 69.6029 119.056 69.4629 119.056C69.1923 119.056 68.9683 118.972 68.7909 118.804C68.6136 118.627 68.5249 118.393 68.5249 118.104ZM73.6342 113.19L72.2622 113.022C72.2528 112.938 72.2482 112.817 72.2482 112.658C72.2482 111.846 72.5328 111.155 73.1022 110.586C73.6715 110.007 74.4322 109.718 75.3842 109.718C76.3268 109.718 77.0735 109.989 77.6242 110.53C78.1748 111.062 78.4502 111.72 78.4502 112.504C78.4502 113.652 77.8808 114.585 76.7422 115.304L74.9502 116.452C74.3062 116.863 73.9375 117.287 73.8442 117.726H78.5062V119H72.1502C72.1688 118.235 72.3415 117.563 72.6682 116.984C73.0042 116.405 73.5502 115.873 74.3062 115.388L75.8182 114.408C76.6488 113.876 77.0642 113.246 77.0642 112.518C77.0642 112.07 76.9148 111.692 76.6162 111.384C76.3175 111.076 75.8975 110.922 75.3562 110.922C74.7868 110.922 74.3528 111.095 74.0542 111.44C73.7555 111.785 73.6062 112.233 73.6062 112.784C73.6062 112.868 73.6155 113.003 73.6342 113.19ZM86.4203 110.222L86.0003 111.342C85.5523 111.081 85.011 110.95 84.3763 110.95C83.4523 110.95 82.701 111.253 82.1223 111.86C81.553 112.467 81.2403 113.246 81.1843 114.198C81.3896 113.862 81.6976 113.582 82.1083 113.358C82.5283 113.134 83.0183 113.022 83.5783 113.022C84.5023 113.022 85.249 113.297 85.8183 113.848C86.397 114.399 86.6863 115.155 86.6863 116.116C86.6863 117.059 86.3596 117.81 85.7063 118.37C85.053 118.93 84.2596 119.21 83.3263 119.21C82.3556 119.21 81.5203 118.86 80.8203 118.16C80.1296 117.451 79.7843 116.401 79.7843 115.01C79.7843 113.367 80.223 112.075 81.1003 111.132C81.9776 110.189 83.0976 109.718 84.4603 109.718C85.291 109.718 85.9443 109.886 86.4203 110.222ZM81.3803 116.116C81.3803 116.685 81.5763 117.147 81.9683 117.502C82.3603 117.847 82.8176 118.02 83.3403 118.02C83.891 118.02 84.353 117.847 84.7263 117.502C85.109 117.157 85.3003 116.695 85.3003 116.116C85.3003 115.528 85.109 115.061 84.7263 114.716C84.353 114.371 83.891 114.198 83.3403 114.198C82.7896 114.198 82.323 114.371 81.9403 114.716C81.567 115.061 81.3803 115.528 81.3803 116.116ZM87.6814 116.956V115.374L91.5734 109.928H93.4634V115.682H95.0174V116.956H93.4634V119H92.1334V116.956H87.6814ZM92.1334 115.682V111.244L88.9414 115.682H92.1334ZM103.588 112.196V113.596C103.392 113.568 103.201 113.554 103.014 113.554C101.782 113.554 101.166 114.245 101.166 115.626V119H99.8505V112.266H101.138V113.442C101.549 112.583 102.221 112.154 103.154 112.154C103.304 112.154 103.448 112.168 103.588 112.196ZM105.777 114.94H109.459C109.44 114.436 109.272 114.025 108.955 113.708C108.637 113.381 108.189 113.218 107.611 113.218C107.088 113.218 106.659 113.391 106.323 113.736C105.987 114.072 105.805 114.473 105.777 114.94ZM109.655 116.69L110.789 117.082C110.593 117.707 110.229 118.221 109.697 118.622C109.165 119.014 108.521 119.21 107.765 119.21C106.822 119.21 106.019 118.888 105.357 118.244C104.703 117.591 104.377 116.713 104.377 115.612C104.377 114.585 104.694 113.736 105.329 113.064C105.963 112.392 106.719 112.056 107.597 112.056C108.614 112.056 109.407 112.378 109.977 113.022C110.546 113.657 110.831 114.511 110.831 115.584C110.831 115.752 110.821 115.892 110.803 116.004H105.735C105.744 116.601 105.94 117.091 106.323 117.474C106.715 117.857 107.195 118.048 107.765 118.048C108.726 118.048 109.356 117.595 109.655 116.69ZM118.142 112.266L115.454 119H114.124L111.394 112.266H112.878L114.796 117.46L116.728 112.266H118.142ZM120.703 119H119.401V112.266H120.703V119ZM119.373 110.39C119.196 110.203 119.107 109.979 119.107 109.718C119.107 109.457 119.196 109.233 119.373 109.046C119.56 108.859 119.784 108.766 120.045 108.766C120.307 108.766 120.531 108.859 120.717 109.046C120.904 109.223 120.997 109.447 120.997 109.718C120.997 109.979 120.904 110.203 120.717 110.39C120.531 110.567 120.307 110.656 120.045 110.656C119.784 110.656 119.56 110.567 119.373 110.39ZM123.796 114.94H127.478C127.46 114.436 127.292 114.025 126.974 113.708C126.657 113.381 126.209 113.218 125.63 113.218C125.108 113.218 124.678 113.391 124.342 113.736C124.006 114.072 123.824 114.473 123.796 114.94ZM127.674 116.69L128.808 117.082C128.612 117.707 128.248 118.221 127.716 118.622C127.184 119.014 126.54 119.21 125.784 119.21C124.842 119.21 124.039 118.888 123.376 118.244C122.723 117.591 122.396 116.713 122.396 115.612C122.396 114.585 122.714 113.736 123.348 113.064C123.983 112.392 124.739 112.056 125.616 112.056C126.634 112.056 127.427 112.378 127.996 113.022C128.566 113.657 128.85 114.511 128.85 115.584C128.85 115.752 128.841 115.892 128.822 116.004H123.754C123.764 116.601 123.96 117.091 124.342 117.474C124.734 117.857 125.215 118.048 125.784 118.048C126.746 118.048 127.376 117.595 127.674 116.69ZM134.256 112.266H135.614L137.364 117.334L138.848 112.266H140.234L138.05 119H136.692L134.9 113.876L133.15 119H131.764L129.552 112.266H130.994L132.506 117.334L134.256 112.266ZM140.933 117.25L142.123 116.83C142.17 117.194 142.329 117.497 142.599 117.74C142.87 117.973 143.234 118.09 143.691 118.09C144.046 118.09 144.326 118.006 144.531 117.838C144.737 117.661 144.839 117.446 144.839 117.194C144.839 116.746 144.55 116.457 143.971 116.326L142.823 116.074C142.301 115.962 141.89 115.738 141.591 115.402C141.293 115.066 141.143 114.66 141.143 114.184C141.143 113.605 141.377 113.106 141.843 112.686C142.319 112.266 142.884 112.056 143.537 112.056C143.967 112.056 144.349 112.121 144.685 112.252C145.021 112.373 145.283 112.537 145.469 112.742C145.656 112.947 145.796 113.139 145.889 113.316C145.983 113.493 146.053 113.675 146.099 113.862L144.937 114.296C144.919 114.184 144.886 114.077 144.839 113.974C144.793 113.862 144.718 113.741 144.615 113.61C144.522 113.479 144.382 113.377 144.195 113.302C144.009 113.218 143.789 113.176 143.537 113.176C143.211 113.176 142.94 113.265 142.725 113.442C142.52 113.619 142.417 113.829 142.417 114.072C142.417 114.501 142.674 114.772 143.187 114.884L144.279 115.122C144.877 115.253 145.334 115.495 145.651 115.85C145.978 116.195 146.141 116.62 146.141 117.124C146.141 117.656 145.922 118.137 145.483 118.566C145.054 118.995 144.452 119.21 143.677 119.21C142.847 119.21 142.198 119.005 141.731 118.594C141.265 118.174 140.999 117.726 140.933 117.25Z" fill="white"/>
<path d="M38.932 71.9334C38.7162 72.1425 38.617 72.445 38.6662 72.7417L39.407 76.8417C39.4695 77.1892 39.3228 77.5409 39.032 77.7417C38.747 77.95 38.3678 77.975 38.057 77.8084L34.3662 75.8834C34.2378 75.815 34.0953 75.7784 33.9495 75.7742H33.7237C33.6453 75.7859 33.5687 75.8109 33.4987 75.8492L29.807 77.7834C29.6245 77.875 29.4178 77.9075 29.2153 77.875C28.722 77.7817 28.3928 77.3117 28.4737 76.8159L29.2153 72.7159C29.2645 72.4167 29.1653 72.1125 28.9495 71.9L25.9403 68.9834C25.6887 68.7392 25.6012 68.3725 25.7162 68.0417C25.8278 67.7117 26.1128 67.4709 26.457 67.4167L30.5987 66.8159C30.9137 66.7834 31.1903 66.5917 31.332 66.3084L33.157 62.5667C33.2003 62.4834 33.2562 62.4067 33.3237 62.3417L33.3987 62.2834C33.4378 62.24 33.4828 62.2042 33.5328 62.175L33.6237 62.1417L33.7653 62.0834H34.1162C34.4295 62.1159 34.7053 62.3034 34.8495 62.5834L36.6987 66.3084C36.832 66.5809 37.0912 66.77 37.3903 66.8159L41.532 67.4167C41.882 67.4667 42.1745 67.7084 42.2903 68.0417C42.3995 68.3759 42.3053 68.7425 42.0487 68.9834L38.932 71.9334Z" fill="#FFB154"/>
<path d="M62.932 71.9334C62.7162 72.1425 62.617 72.445 62.6662 72.7417L63.407 76.8417C63.4695 77.1892 63.3228 77.5409 63.032 77.7417C62.747 77.95 62.3678 77.975 62.057 77.8084L58.3662 75.8834C58.2378 75.815 58.0953 75.7784 57.9495 75.7742H57.7237C57.6453 75.7859 57.5687 75.8109 57.4987 75.8492L53.807 77.7834C53.6245 77.875 53.4178 77.9075 53.2153 77.875C52.722 77.7817 52.3928 77.3117 52.4737 76.8159L53.2153 72.7159C53.2645 72.4167 53.1653 72.1125 52.9495 71.9L49.9403 68.9834C49.6887 68.7392 49.6012 68.3725 49.7162 68.0417C49.8278 67.7117 50.1128 67.4709 50.457 67.4167L54.5987 66.8159C54.9137 66.7834 55.1903 66.5917 55.332 66.3084L57.157 62.5667C57.2003 62.4834 57.2562 62.4067 57.3237 62.3417L57.3987 62.2834C57.4378 62.24 57.4828 62.2042 57.5328 62.175L57.6237 62.1417L57.7653 62.0834H58.1162C58.4295 62.1159 58.7053 62.3034 58.8495 62.5834L60.6987 66.3084C60.832 66.5809 61.0912 66.77 61.3903 66.8159L65.532 67.4167C65.882 67.4667 66.1745 67.7084 66.2903 68.0417C66.3995 68.3759 66.3053 68.7425 66.0487 68.9834L62.932 71.9334Z" fill="#FFB154"/>
<path d="M86.932 71.9334C86.7162 72.1425 86.617 72.445 86.6662 72.7417L87.407 76.8417C87.4695 77.1892 87.3228 77.5409 87.032 77.7417C86.747 77.95 86.3678 77.975 86.057 77.8084L82.3662 75.8834C82.2378 75.815 82.0953 75.7784 81.9495 75.7742H81.7237C81.6453 75.7859 81.5687 75.8109 81.4987 75.8492L77.807 77.7834C77.6245 77.875 77.4178 77.9075 77.2153 77.875C76.722 77.7817 76.3928 77.3117 76.4737 76.8159L77.2153 72.7159C77.2645 72.4167 77.1653 72.1125 76.9495 71.9L73.9403 68.9834C73.6887 68.7392 73.6012 68.3725 73.7162 68.0417C73.8278 67.7117 74.1128 67.4709 74.457 67.4167L78.5987 66.8159C78.9137 66.7834 79.1903 66.5917 79.332 66.3084L81.157 62.5667C81.2003 62.4834 81.2562 62.4067 81.3237 62.3417L81.3987 62.2834C81.4378 62.24 81.4828 62.2042 81.5328 62.175L81.6237 62.1417L81.7653 62.0834H82.1162C82.4295 62.1159 82.7053 62.3034 82.8495 62.5834L84.6987 66.3084C84.832 66.5809 85.0912 66.77 85.3903 66.8159L89.532 67.4167C89.882 67.4667 90.1745 67.7084 90.2903 68.0417C90.3995 68.3759 90.3053 68.7425 90.0487 68.9834L86.932 71.9334Z" fill="#FFB154"/>
<path d="M110.932 71.9334C110.716 72.1425 110.617 72.445 110.666 72.7417L111.407 76.8417C111.469 77.1892 111.323 77.5409 111.032 77.7417C110.747 77.95 110.368 77.975 110.057 77.8084L106.366 75.8834C106.238 75.815 106.095 75.7784 105.949 75.7742H105.724C105.645 75.7859 105.569 75.8109 105.499 75.8492L101.807 77.7834C101.624 77.875 101.418 77.9075 101.215 77.875C100.722 77.7817 100.393 77.3117 100.474 76.8159L101.215 72.7159C101.264 72.4167 101.165 72.1125 100.949 71.9L97.9403 68.9834C97.6887 68.7392 97.6012 68.3725 97.7162 68.0417C97.8278 67.7117 98.1128 67.4709 98.457 67.4167L102.599 66.8159C102.914 66.7834 103.19 66.5917 103.332 66.3084L105.157 62.5667C105.2 62.4834 105.256 62.4067 105.324 62.3417L105.399 62.2834C105.438 62.24 105.483 62.2042 105.533 62.175L105.624 62.1417L105.765 62.0834H106.116C106.429 62.1159 106.705 62.3034 106.849 62.5834L108.699 66.3084C108.832 66.5809 109.091 66.77 109.39 66.8159L113.532 67.4167C113.882 67.4667 114.174 67.7084 114.29 68.0417C114.399 68.3759 114.305 68.7425 114.049 68.9834L110.932 71.9334Z" fill="#FFB154"/>
<path d="M134.932 71.9334C134.716 72.1425 134.617 72.445 134.666 72.7417L135.407 76.8417C135.469 77.1892 135.323 77.5409 135.032 77.7417C134.747 77.95 134.368 77.975 134.057 77.8084L130.366 75.8834C130.238 75.815 130.095 75.7784 129.949 75.7742H129.724C129.645 75.7859 129.569 75.8109 129.499 75.8492L125.807 77.7834C125.624 77.875 125.418 77.9075 125.215 77.875C124.722 77.7817 124.393 77.3117 124.474 76.8159L125.215 72.7159C125.264 72.4167 125.165 72.1125 124.949 71.9L121.94 68.9834C121.689 68.7392 121.601 68.3725 121.716 68.0417C121.828 67.7117 122.113 67.4709 122.457 67.4167L126.599 66.8159C126.914 66.7834 127.19 66.5917 127.332 66.3084L129.157 62.5667C129.2 62.4834 129.256 62.4067 129.324 62.3417L129.399 62.2834C129.438 62.24 129.483 62.2042 129.533 62.175L129.624 62.1417L129.765 62.0834H130.116C130.429 62.1159 130.705 62.3034 130.849 62.5834L132.699 66.3084C132.832 66.5809 133.091 66.77 133.39 66.8159L137.532 67.4167C137.882 67.4667 138.174 67.7084 138.29 68.0417C138.399 68.3759 138.305 68.7425 138.049 68.9834L134.932 71.9334Z" fill="#FFB154"/>
<defs>
<linearGradient id="paint0_linear_15_457" x1="-6.6275" y1="531.488" x2="101.726" y2="127.106" gradientUnits="userSpaceOnUse">
<stop stop-color="white"/>
<stop offset="1" stop-color="white" stop-opacity="0"/>
</linearGradient>
<linearGradient id="paint1_linear_15_457" x1="-4.04986" y1="521.878" x2="104.304" y2="117.496" gradientUnits="userSpaceOnUse">
<stop stop-color="white"/>
<stop offset="1" stop-color="white" stop-opacity="0"/>
</linearGradient>
<linearGradient id="paint2_linear_15_457" x1="-1.47857" y1="512.268" x2="106.875" y2="107.886" gradientUnits="userSpaceOnUse">
<stop stop-color="white"/>
<stop offset="1" stop-color="white" stop-opacity="0"/>
</linearGradient>
<linearGradient id="paint3_linear_15_457" x1="1.09711" y1="502.657" x2="109.451" y2="98.2748" gradientUnits="userSpaceOnUse">
<stop stop-color="white"/>
<stop offset="1" stop-color="white" stop-opacity="0"/>
</linearGradient>
<linearGradient id="paint4_linear_15_457" x1="3.67475" y1="493.046" x2="112.029" y2="88.6644" gradientUnits="userSpaceOnUse">
<stop stop-color="white"/>
<stop offset="1" stop-color="white" stop-opacity="0"/>
</linearGradient>
<linearGradient id="paint5_linear_15_457" x1="6.24603" y1="483.436" x2="114.6" y2="79.0541" gradientUnits="userSpaceOnUse">
<stop stop-color="white"/>
<stop offset="1" stop-color="white" stop-opacity="0"/>
</linearGradient>
<linearGradient id="paint6_linear_15_457" x1="8.82367" y1="473.823" x2="117.177" y2="69.4413" gradientUnits="userSpaceOnUse">
<stop stop-color="white"/>
<stop offset="1" stop-color="white" stop-opacity="0"/>
</linearGradient>
<linearGradient id="paint7_linear_15_457" x1="11.3989" y1="464.213" x2="119.753" y2="59.8309" gradientUnits="userSpaceOnUse">
<stop stop-color="white"/>
<stop offset="1" stop-color="white" stop-opacity="0"/>
</linearGradient>
<linearGradient id="paint8_linear_15_457" x1="13.9765" y1="454.603" x2="122.33" y2="50.2206" gradientUnits="userSpaceOnUse">
<stop stop-color="white"/>
<stop offset="1" stop-color="white" stop-opacity="0"/>
</linearGradient>
<linearGradient id="paint9_linear_15_457" x1="16.4877" y1="445.221" x2="124.842" y2="40.8388" gradientUnits="userSpaceOnUse">
<stop stop-color="white"/>
<stop offset="1" stop-color="white" stop-opacity="0"/>
</linearGradient>
<linearGradient id="paint10_linear_15_457" x1="19.0034" y1="435.831" x2="127.357" y2="31.4491" gradientUnits="userSpaceOnUse">
<stop stop-color="white"/>
<stop offset="1" stop-color="white" stop-opacity="0"/>
</linearGradient>
<linearGradient id="paint11_linear_15_457" x1="21.5146" y1="426.45" x2="129.868" y2="22.0678" gradientUnits="userSpaceOnUse">
<stop stop-color="white"/>
<stop offset="1" stop-color="white" stop-opacity="0"/>
</linearGradient>
<linearGradient id="paint12_linear_15_457" x1="24.0302" y1="417.068" x2="132.384" y2="12.6864" gradientUnits="userSpaceOnUse">
<stop stop-color="white"/>
<stop offset="1" stop-color="white" stop-opacity="0"/>
</linearGradient>
<linearGradient id="paint13_linear_15_457" x1="26.5478" y1="407.685" x2="134.902" y2="3.30262" gradientUnits="userSpaceOnUse">
<stop stop-color="white"/>
<stop offset="1" stop-color="white" stop-opacity="0"/>
</linearGradient>
<linearGradient id="paint14_linear_15_457" x1="29.0571" y1="398.299" x2="137.411" y2="-6.08312" gradientUnits="userSpaceOnUse">
<stop stop-color="white"/>
<stop offset="1" stop-color="white" stop-opacity="0"/>
</linearGradient>
<linearGradient id="paint15_linear_15_457" x1="31.5746" y1="388.916" x2="139.928" y2="-15.4664" gradientUnits="userSpaceOnUse">
<stop stop-color="white"/>
<stop offset="1" stop-color="white" stop-opacity="0"/>
</linearGradient>
<linearGradient id="paint16_linear_15_457" x1="34.0903" y1="379.532" x2="142.444" y2="-24.8502" gradientUnits="userSpaceOnUse">
<stop stop-color="white"/>
<stop offset="1" stop-color="white" stop-opacity="0"/>
</linearGradient>
<linearGradient id="paint17_linear_15_457" x1="36.6015" y1="370.15" x2="144.955" y2="-34.2316" gradientUnits="userSpaceOnUse">
<stop stop-color="white"/>
<stop offset="1" stop-color="white" stop-opacity="0"/>
</linearGradient>
<linearGradient id="paint18_linear_15_457" x1="39.1196" y1="360.769" x2="147.473" y2="-43.6129" gradientUnits="userSpaceOnUse">
<stop stop-color="white"/>
<stop offset="1" stop-color="white" stop-opacity="0"/>
</linearGradient>
<linearGradient id="paint19_linear_15_457" x1="41.6284" y1="351.381" x2="149.982" y2="-53.0006" gradientUnits="userSpaceOnUse">
<stop stop-color="white"/>
<stop offset="1" stop-color="white" stop-opacity="0"/>
</linearGradient>
<linearGradient id="paint20_linear_15_457" x1="44.144" y1="341.998" x2="152.498" y2="-62.3844" gradientUnits="userSpaceOnUse">
<stop stop-color="white"/>
<stop offset="1" stop-color="white" stop-opacity="0"/>
</linearGradient>
<linearGradient id="paint21_linear_15_457" x1="46.6616" y1="332.616" x2="155.015" y2="-71.7657" gradientUnits="userSpaceOnUse">
<stop stop-color="white"/>
<stop offset="1" stop-color="white" stop-opacity="0"/>
</linearGradient>
<linearGradient id="paint22_linear_15_457" x1="49.1728" y1="323.235" x2="157.527" y2="-81.1471" gradientUnits="userSpaceOnUse">
<stop stop-color="white"/>
<stop offset="1" stop-color="white" stop-opacity="0"/>
</linearGradient>
<clipPath id="clip0_15_457">
<rect width="83.75" height="-20" fill="white" transform="matrix(1 0 0 -1 153 24)"/>
</clipPath>
</defs>
</svg>
