<svg xmlns="http://www.w3.org/2000/svg" xmlns:xlink="http://www.w3.org/1999/xlink" width="500" zoomAndPan="magnify" viewBox="0 0 375 374.999991" height="500" preserveAspectRatio="xMidYMid meet" version="1.2"><g id="db2979b862"><path style=" stroke:none;fill-rule:nonzero;fill:#3871c1;fill-opacity:1;" d="M 367.351562 277.75 C 371.410156 273.324219 370.742188 266.265625 365.925781 262.714844 L 295.273438 210.628906 C 294.78125 210.265625 294.316406 209.855469 293.855469 209.445312 L 293.535156 209.160156 C 289.125 205.28125 282.75 205.28125 278.339844 209.160156 L 278.019531 209.445312 C 277.558594 209.855469 277.09375 210.265625 276.601562 210.628906 L 205.949219 262.714844 C 201.132812 266.265625 200.464844 273.324219 204.523438 277.75 C 207.882812 281.410156 213.371094 281.992188 217.394531 279.113281 L 285.9375 230.050781 L 354.480469 279.113281 C 358.503906 281.992188 363.992188 281.410156 367.351562 277.75 Z M 367.351562 277.75 "/><path style=" stroke:none;fill-rule:evenodd;fill:#3871c1;fill-opacity:1;" d="M 196.875 368.507812 C 196.875 364.925781 199.722656 362.019531 203.238281 362.019531 L 222.320312 362.019531 L 222.320312 283.179688 L 285.9375 238.703125 L 349.554688 283.210938 L 349.554688 362.019531 L 368.636719 362.019531 C 372.152344 362.019531 375 364.925781 375 368.507812 C 375 372.09375 372.152344 375 368.636719 375 L 203.238281 375 C 199.722656 375 196.875 372.09375 196.875 368.507812 Z M 273.214844 362.019531 L 298.660156 362.019531 L 298.660156 316.585938 C 298.660156 313.003906 295.8125 310.097656 292.300781 310.097656 L 279.574219 310.097656 C 276.0625 310.097656 273.214844 313.003906 273.214844 316.585938 Z M 241.40625 310.097656 C 237.894531 310.097656 235.042969 313.003906 235.042969 316.585938 L 235.042969 329.566406 C 235.042969 333.152344 237.894531 336.058594 241.40625 336.058594 L 254.128906 336.058594 C 257.644531 336.058594 260.492188 333.152344 260.492188 329.566406 L 260.492188 316.585938 C 260.492188 313.003906 257.644531 310.097656 254.128906 310.097656 Z M 311.382812 316.585938 C 311.382812 313.003906 314.230469 310.097656 317.746094 310.097656 L 330.46875 310.097656 C 333.980469 310.097656 336.832031 313.003906 336.832031 316.585938 L 336.832031 329.566406 C 336.832031 333.152344 333.980469 336.058594 330.46875 336.058594 L 317.746094 336.058594 C 314.230469 336.058594 311.382812 333.152344 311.382812 329.566406 Z M 311.382812 316.585938 "/><path style=" stroke:none;fill-rule:nonzero;fill:#3871c1;fill-opacity:1;" d="M 300 9.375 L 37.5 9.375 C 21.96875 9.375 9.375 21.96875 9.375 37.5 L 9.375 337.5 C 9.375 353.03125 21.96875 365.625 37.5 365.625 L 182.8125 365.625 C 185.402344 365.625 187.5 367.722656 187.5 370.3125 C 187.5 372.902344 185.402344 375 182.8125 375 L 37.5 375 C 16.789062 375 0 358.210938 0 337.5 L 0 37.5 C 0 16.789062 16.789062 0 37.5 0 L 300 0 C 320.710938 0 337.5 16.789062 337.5 37.5 L 337.5 210.9375 C 337.5 213.527344 335.402344 215.625 332.8125 215.625 C 330.222656 215.625 328.125 213.527344 328.125 210.9375 L 328.125 37.5 C 328.125 21.96875 315.53125 9.375 300 9.375 Z M 300 9.375 "/><path style=" stroke:none;fill-rule:nonzero;fill:#3871c1;fill-opacity:1;" d="M 92.71875 72.417969 C 91.796875 74.015625 91.851562 75.964844 92.507812 77.6875 C 94.449219 82.777344 94.164062 88.664062 91.230469 93.75 C 86.054688 102.714844 74.589844 105.785156 65.625 100.609375 C 56.660156 95.433594 53.585938 83.96875 58.761719 75 C 63.140625 67.421875 72.007812 64.054688 80.0625 66.320312 C 82.554688 67.023438 85.417969 66.324219 86.710938 64.082031 C 88.003906 61.839844 87.246094 58.929688 84.820312 58.023438 C 72.183594 53.292969 57.617188 58.242188 50.648438 70.316406 C 42.882812 83.765625 47.488281 100.960938 60.9375 108.726562 C 74.386719 116.492188 91.582031 111.886719 99.347656 98.433594 C 104.167969 90.082031 104.21875 80.285156 100.34375 72.199219 C 98.804688 68.984375 94.5 69.332031 92.71875 72.417969 Z M 92.71875 72.417969 "/><path style=" stroke:none;fill-rule:nonzero;fill:#3871c1;fill-opacity:1;" d="M 135.972656 65.773438 C 133.386719 65.773438 131.285156 67.871094 131.285156 70.460938 C 131.285156 73.050781 133.386719 75.148438 135.972656 75.148438 L 285.925781 75.148438 C 288.515625 75.148438 290.613281 73.050781 290.613281 70.460938 C 290.613281 67.871094 288.515625 65.773438 285.925781 65.773438 Z M 135.972656 65.773438 "/><path style=" stroke:none;fill-rule:nonzero;fill:#3871c1;fill-opacity:1;" d="M 135.972656 93.890625 C 133.386719 93.890625 131.285156 95.988281 131.285156 98.578125 C 131.285156 101.164062 133.386719 103.261719 135.972656 103.261719 L 220.320312 103.261719 C 222.910156 103.261719 225.007812 101.164062 225.007812 98.578125 C 225.007812 95.988281 222.910156 93.890625 220.320312 93.890625 Z M 135.972656 93.890625 "/><path style=" stroke:none;fill-rule:nonzero;fill:#3871c1;fill-opacity:1;" d="M 92.507812 180.8125 C 91.851562 179.089844 91.796875 177.140625 92.71875 175.542969 C 94.5 172.457031 98.804688 172.109375 100.34375 175.324219 C 104.21875 183.410156 104.167969 193.207031 99.347656 201.558594 C 91.582031 215.011719 74.386719 219.617188 60.9375 211.851562 C 47.488281 204.085938 42.882812 186.890625 50.648438 173.441406 C 57.617188 161.367188 72.183594 156.417969 84.820312 161.148438 C 87.246094 162.054688 88.003906 164.964844 86.710938 167.207031 C 85.417969 169.449219 82.554688 170.148438 80.0625 169.445312 C 72.007812 167.179688 63.140625 170.546875 58.761719 178.125 C 53.585938 187.09375 56.660156 198.558594 65.625 203.734375 C 74.589844 208.910156 86.054688 205.839844 91.230469 196.875 C 94.164062 191.789062 94.449219 185.902344 92.507812 180.8125 Z M 92.507812 180.8125 "/><path style=" stroke:none;fill-rule:nonzero;fill:#3871c1;fill-opacity:1;" d="M 131.285156 173.585938 C 131.285156 170.996094 133.386719 168.898438 135.972656 168.898438 L 285.925781 168.898438 C 288.515625 168.898438 290.613281 170.996094 290.613281 173.585938 C 290.613281 176.175781 288.515625 178.273438 285.925781 178.273438 L 135.972656 178.273438 C 133.386719 178.273438 131.285156 176.175781 131.285156 173.585938 Z M 131.285156 173.585938 "/><path style=" stroke:none;fill-rule:nonzero;fill:#3871c1;fill-opacity:1;" d="M 131.285156 201.703125 C 131.285156 199.113281 133.386719 197.015625 135.972656 197.015625 L 220.320312 197.015625 C 222.910156 197.015625 225.007812 199.113281 225.007812 201.703125 C 225.007812 204.289062 222.910156 206.386719 220.320312 206.386719 L 135.972656 206.386719 C 133.386719 206.386719 131.285156 204.289062 131.285156 201.703125 Z M 131.285156 201.703125 "/><path style=" stroke:none;fill-rule:nonzero;fill:#3871c1;fill-opacity:1;" d="M 92.71875 278.667969 C 91.796875 280.265625 91.851562 282.214844 92.507812 283.9375 C 94.449219 289.027344 94.164062 294.914062 91.230469 300 C 86.054688 308.964844 74.589844 312.035156 65.625 306.859375 C 56.660156 301.683594 53.585938 290.21875 58.761719 281.25 C 63.140625 273.671875 72.007812 270.304688 80.0625 272.570312 C 82.554688 273.273438 85.417969 272.574219 86.710938 270.332031 C 88.003906 268.089844 87.246094 265.179688 84.820312 264.273438 C 72.183594 259.542969 57.617188 264.492188 50.648438 276.566406 C 42.882812 290.015625 47.488281 307.210938 60.9375 314.976562 C 74.386719 322.742188 91.582031 318.136719 99.347656 304.683594 C 104.167969 296.332031 104.21875 286.535156 100.34375 278.449219 C 98.804688 275.234375 94.5 275.582031 92.71875 278.667969 Z M 92.71875 278.667969 "/><path style=" stroke:none;fill-rule:nonzero;fill:#3871c1;fill-opacity:1;" d="M 135.972656 272.023438 C 133.386719 272.023438 131.285156 274.121094 131.285156 276.710938 C 131.285156 279.300781 133.386719 281.398438 135.972656 281.398438 L 182.800781 281.398438 C 185.390625 281.398438 187.488281 279.300781 187.488281 276.710938 C 187.488281 274.121094 185.390625 272.023438 182.800781 272.023438 Z M 135.972656 272.023438 "/><path style=" stroke:none;fill-rule:nonzero;fill:#3871c1;fill-opacity:1;" d="M 135.972656 300.140625 C 133.386719 300.140625 131.285156 302.238281 131.285156 304.828125 C 131.285156 307.414062 133.386719 309.511719 135.972656 309.511719 L 192.195312 309.511719 C 194.785156 309.511719 196.882812 307.414062 196.882812 304.828125 C 196.882812 302.238281 194.785156 300.140625 192.195312 300.140625 Z M 135.972656 300.140625 "/></g></svg>