<svg xmlns="http://www.w3.org/2000/svg" xmlns:xlink="http://www.w3.org/1999/xlink" width="500" zoomAndPan="magnify" viewBox="0 0 375 374.999991" height="500" preserveAspectRatio="xMidYMid meet" version="1.2"><defs><clipPath id="6981197683"><path d="M 42 0 L 350.621094 0 L 350.621094 374.796875 L 42 374.796875 Z M 42 0 "/></clipPath></defs><g id="e41953ac61"><g clip-rule="nonzero" clip-path="url(#6981197683)"><path style=" stroke:none;fill-rule:nonzero;fill:#3871c1;fill-opacity:1;" d="M 139.550781 84.253906 C 140.199219 82.683594 141.113281 81.273438 142.214844 80.050781 C 142.855469 81.050781 143.476562 82.039062 144.070312 83.019531 C 145.34375 85.128906 147.582031 86.292969 149.875 86.292969 C 151.066406 86.292969 152.277344 85.976562 153.371094 85.3125 C 156.574219 83.378906 157.597656 79.214844 155.664062 76.015625 C 155.527344 75.789062 155.386719 75.5625 155.25 75.339844 C 156.449219 75.515625 157.636719 75.824219 158.789062 76.300781 C 162.417969 77.808594 165.246094 80.640625 166.746094 84.273438 L 166.75 84.273438 C 168.25 87.90625 168.246094 91.90625 166.738281 95.539062 C 165.234375 99.171875 162.398438 101.996094 158.765625 103.5 C 151.261719 106.597656 142.640625 103.019531 139.539062 95.519531 C 138.039062 91.882812 138.042969 87.882812 139.550781 84.253906 Z M 329.9375 295.550781 L 173.132812 360.355469 C 170.28125 361.535156 167.136719 361.535156 164.289062 360.351562 C 161.4375 359.164062 159.214844 356.941406 158.035156 354.089844 L 72.988281 148.304688 C 71.714844 145.226562 71.828125 141.746094 73.3125 138.757812 L 106.070312 72.644531 C 106.089844 72.609375 106.117188 72.574219 106.132812 72.535156 C 106.167969 72.46875 106.191406 72.402344 106.226562 72.335938 L 117.5625 49.457031 C 123.585938 55.714844 129.292969 62.3125 134.296875 68.839844 C 125.621094 76.617188 122.324219 89.324219 127.019531 100.691406 C 131.523438 111.578125 142.078125 118.164062 153.183594 118.160156 C 156.773438 118.160156 160.421875 117.472656 163.941406 116.019531 C 170.917969 113.132812 176.355469 107.703125 179.253906 100.734375 C 182.144531 93.761719 182.152344 86.078125 179.265625 79.097656 C 176.382812 72.121094 170.953125 66.683594 163.980469 63.792969 C 158.339844 61.449219 152.238281 60.996094 146.417969 62.4375 C 140.03125 53.933594 132.316406 45.011719 123.992188 36.65625 C 126.140625 33.304688 129.859375 31.332031 133.742188 31.332031 C 134.96875 31.332031 136.214844 31.527344 137.425781 31.941406 L 244.183594 68.136719 C 247.335938 69.207031 249.878906 71.589844 251.152344 74.667969 L 336.203125 280.453125 C 338.636719 286.339844 335.828125 293.113281 329.9375 295.550781 Z M 56.09375 22.988281 C 55.496094 20.382812 55.882812 18.347656 57.355469 16.386719 C 58.425781 14.960938 60.195312 13.351562 64.449219 13.5625 C 75.207031 14.101562 91.613281 24.976562 107.382812 39.488281 L 97.132812 60.171875 C 74.621094 47.667969 58.429688 33.117188 56.09375 22.988281 Z M 348.722656 275.277344 L 263.671875 69.496094 C 260.910156 62.804688 255.386719 57.632812 248.53125 55.308594 L 141.777344 19.109375 C 131.628906 15.671875 120.550781 19.152344 114.082031 27.257812 C 97.234375 12.207031 79.152344 0.738281 65.125 0.0351562 C 57.273438 -0.355469 50.847656 2.488281 46.519531 8.257812 C 42.65625 13.410156 41.402344 19.554688 42.894531 26.027344 C 47.4375 45.742188 76.101562 63.972656 91.117188 72.3125 L 61.171875 132.746094 C 57.957031 139.230469 57.699219 146.789062 60.46875 153.480469 L 145.515625 359.261719 C 148.078125 365.460938 152.898438 370.289062 159.09375 372.863281 C 162.195312 374.148438 165.457031 374.796875 168.71875 374.796875 C 171.96875 374.792969 175.214844 374.152344 178.308594 372.875 L 335.109375 308.070312 C 347.90625 302.78125 354.011719 288.074219 348.722656 275.277344 "/></g><path style=" stroke:none;fill-rule:nonzero;fill:#3871c1;fill-opacity:1;" d="M 235.425781 150.878906 C 231.96875 149.441406 228.003906 151.082031 226.574219 154.535156 L 174.574219 279.792969 C 173.140625 283.246094 174.777344 287.214844 178.234375 288.644531 C 179.082031 288.996094 179.960938 289.164062 180.828125 289.164062 C 183.480469 289.164062 186.003906 287.589844 187.085938 284.988281 L 239.082031 159.726562 C 240.519531 156.273438 238.882812 152.308594 235.425781 150.878906 "/><path style=" stroke:none;fill-rule:nonzero;fill:#3871c1;fill-opacity:1;" d="M 171.683594 205.195312 C 170.449219 208.160156 168.136719 210.472656 165.167969 211.699219 C 162.203125 212.921875 158.9375 212.921875 155.972656 211.691406 C 153.007812 210.460938 150.699219 208.144531 149.472656 205.179688 C 146.9375 199.054688 149.863281 192.011719 155.988281 189.480469 C 157.484375 188.859375 159.035156 188.566406 160.5625 188.566406 C 165.285156 188.566406 169.777344 191.367188 171.6875 195.996094 C 172.917969 198.964844 172.914062 202.230469 171.683594 205.195312 Z M 184.191406 210.390625 C 186.8125 204.082031 186.816406 197.132812 184.207031 190.824219 L 184.207031 190.820312 C 178.820312 177.792969 163.84375 171.578125 150.816406 176.957031 C 137.785156 182.34375 131.566406 197.328125 136.953125 210.355469 C 139.558594 216.664062 144.46875 221.582031 150.777344 224.199219 C 153.9375 225.511719 157.257812 226.167969 160.578125 226.167969 C 163.886719 226.167969 167.195312 225.519531 170.34375 224.21875 C 176.65625 221.609375 181.574219 216.699219 184.191406 210.390625 "/><path style=" stroke:none;fill-rule:nonzero;fill:#3871c1;fill-opacity:1;" d="M 264.164062 243.550781 C 262.933594 246.511719 260.621094 248.824219 257.652344 250.046875 C 254.683594 251.277344 251.417969 251.277344 248.453125 250.042969 C 245.488281 248.8125 243.179688 246.5 241.953125 243.53125 C 239.421875 237.410156 242.34375 230.363281 248.46875 227.832031 C 249.964844 227.214844 251.519531 226.921875 253.046875 226.921875 C 257.769531 226.921875 262.257812 229.722656 264.167969 234.351562 L 264.171875 234.351562 C 265.394531 237.316406 265.390625 240.582031 264.164062 243.550781 Z M 262.863281 215.328125 C 256.554688 212.707031 249.605469 212.703125 243.292969 215.3125 C 236.984375 217.921875 232.066406 222.832031 229.449219 229.140625 C 226.832031 235.445312 226.824219 242.398438 229.433594 248.707031 C 232.042969 255.019531 236.953125 259.9375 243.257812 262.554688 C 246.421875 263.867188 249.738281 264.523438 253.058594 264.523438 C 256.367188 264.523438 259.675781 263.871094 262.828125 262.566406 C 269.136719 259.960938 274.054688 255.050781 276.671875 248.742188 C 279.292969 242.4375 279.296875 235.484375 276.6875 229.175781 C 274.082031 222.863281 269.171875 217.945312 262.863281 215.328125 "/><path style=" stroke:none;fill-rule:nonzero;fill:#3871c1;fill-opacity:1;" d="M 119.957031 340.613281 L 68.480469 345.457031 C 65.792969 345.703125 63.175781 344.898438 61.097656 343.175781 C 59.023438 341.457031 57.738281 339.035156 57.488281 336.351562 L 38.300781 132.398438 C 38.03125 129.5 39.023438 126.628906 41.027344 124.515625 L 76.304688 87.253906 C 78.878906 84.539062 78.761719 80.253906 76.046875 77.679688 C 73.328125 75.109375 69.042969 75.226562 66.472656 77.941406 L 31.1875 115.199219 C 26.5 120.148438 24.175781 126.878906 24.816406 133.664062 L 44 337.621094 C 44.59375 343.90625 47.597656 349.585938 52.457031 353.613281 C 56.738281 357.15625 62.003906 359.046875 67.492188 359.046875 C 68.242188 359.046875 68.992188 359.011719 69.75 358.9375 L 121.226562 354.097656 C 124.949219 353.746094 127.6875 350.445312 127.339844 346.722656 C 126.984375 342.996094 123.6875 340.253906 119.957031 340.613281 "/></g></svg>