<svg xmlns="http://www.w3.org/2000/svg" xmlns:xlink="http://www.w3.org/1999/xlink" width="500" zoomAndPan="magnify" viewBox="0 0 375 374.999991" height="500" preserveAspectRatio="xMidYMid meet" version="1.2"><defs><clipPath id="8113fb4607"><path d="M 0 21 L 374 21 L 374 358.363281 L 0 358.363281 Z M 0 21 "/></clipPath></defs><g id="65cdf7de3e"><g clip-rule="nonzero" clip-path="url(#8113fb4607)"><path style=" stroke:none;fill-rule:nonzero;fill:#3871c1;fill-opacity:1;" d="M 117.28125 121.921875 C 117.40625 122.074219 117.535156 122.21875 117.675781 122.359375 L 183.167969 187.851562 C 184.167969 188.847656 185.445312 189.414062 186.757812 189.535156 C 186.953125 189.554688 187.148438 189.5625 187.34375 189.5625 C 187.410156 189.5625 187.472656 189.5625 187.539062 189.558594 C 189.019531 189.511719 190.429688 188.894531 191.472656 187.851562 L 256.96875 122.359375 C 257.101562 122.222656 257.230469 122.078125 257.351562 121.929688 L 268.875 110.40625 C 289.207031 90.074219 289.207031 56.996094 268.875 36.660156 C 248.546875 16.332031 215.464844 16.332031 195.128906 36.660156 L 195.128906 36.664062 L 187.320312 44.472656 L 179.511719 36.660156 C 159.179688 16.332031 126.097656 16.332031 105.765625 36.664062 C 85.433594 56.996094 85.433594 90.074219 105.765625 110.40625 Z M 114.007812 44.902344 C 121.65625 37.253906 131.824219 33.042969 142.640625 33.042969 C 153.457031 33.042969 163.625 37.253906 171.273438 44.902344 L 183.203125 56.832031 C 184.292969 57.925781 185.777344 58.539062 187.320312 58.539062 C 188.867188 58.539062 190.347656 57.925781 191.441406 56.832031 L 203.371094 44.902344 C 211.019531 37.253906 221.1875 33.042969 232.003906 33.042969 C 242.820312 33.042969 252.988281 37.253906 260.636719 44.902344 C 276.425781 60.691406 276.425781 86.378906 260.636719 102.167969 L 248.707031 114.097656 C 248.566406 114.234375 248.4375 114.378906 248.316406 114.527344 L 187.324219 175.523438 L 126.332031 114.53125 C 126.207031 114.382812 126.078125 114.238281 125.9375 114.097656 L 114.007812 102.164062 C 98.21875 86.378906 98.21875 60.691406 114.007812 44.902344 Z M 372.160156 180.277344 C 361.660156 169.78125 345.859375 166.457031 332.097656 171.617188 C 327.890625 170.035156 323.390625 169.199219 318.761719 169.199219 C 308.742188 169.199219 299.316406 173.070312 292.191406 180.101562 L 248.832031 216.828125 C 248.851562 216.363281 248.871094 215.898438 248.871094 215.429688 C 248.871094 212.210938 246.261719 209.601562 243.042969 209.601562 L 109.199219 209.601562 C 90.070312 209.601562 72.082031 217.054688 58.554688 230.582031 L 2.480469 286.652344 C 0.207031 288.929688 0.207031 292.617188 2.480469 294.894531 C 3.621094 296.03125 5.113281 296.597656 6.601562 296.597656 C 8.09375 296.597656 9.585938 296.03125 10.722656 294.894531 L 66.796875 238.820312 C 78.121094 227.492188 93.183594 221.257812 109.203125 221.257812 L 236.519531 221.257812 C 233.890625 232.164062 224.054688 240.292969 212.355469 240.292969 L 141.09375 240.292969 C 137.875 240.292969 135.265625 242.898438 135.265625 246.117188 C 135.265625 249.335938 137.875 251.945312 141.09375 251.945312 L 212.355469 251.945312 C 222.675781 251.945312 232.003906 247.632812 238.652344 240.722656 L 299.902344 188.84375 C 300.023438 188.742188 300.140625 188.632812 300.253906 188.519531 C 309.042969 179.730469 322.578125 178.511719 332.683594 184.859375 L 239.945312 277.597656 C 231.324219 286.21875 219.863281 290.96875 207.671875 290.96875 L 116.269531 290.96875 C 105.632812 290.96875 95.628906 295.109375 88.105469 302.632812 L 42.339844 348.398438 C 40.066406 350.675781 40.066406 354.363281 42.339844 356.640625 C 43.476562 357.777344 44.96875 358.34375 46.460938 358.34375 C 47.953125 358.34375 49.445312 357.777344 50.582031 356.640625 L 96.347656 310.871094 C 101.667969 305.550781 108.742188 302.621094 116.269531 302.621094 L 234.328125 302.621094 C 249.632812 302.621094 264.019531 296.660156 274.839844 285.839844 L 372.160156 188.519531 C 374.4375 186.242188 374.4375 182.554688 372.160156 180.277344 Z M 266.601562 277.597656 C 260.175781 284.023438 252.175781 288.289062 243.476562 290.050781 C 245.109375 288.738281 246.683594 287.339844 248.1875 285.839844 L 345.507812 188.519531 C 347.589844 186.433594 347.761719 183.167969 346.027344 180.882812 C 350.703125 181.003906 355.320312 182.355469 359.332031 184.867188 Z M 266.601562 277.597656 "/></g></g></svg>